<mxfile host="app.diagrams.net" modified="2024-02-23T00:38:45.575Z" agent="Mozilla/5.0 (Windows NT 10.0; Win64; x64; rv:122.0) Gecko/20100101 Firefox/122.0" etag="CjLN960XvjHxHSxnxi5F" version="23.1.5" type="device">
  <diagram name="Page-1" id="ALpWwbiZaHAGxp9ZZEmo">
    <mxGraphModel dx="-266" dy="754" grid="1" gridSize="10" guides="1" tooltips="1" connect="1" arrows="1" fold="1" page="1" pageScale="1" pageWidth="850" pageHeight="1100" math="0" shadow="0">
      <root>
        <mxCell id="0" />
        <mxCell id="1" parent="0" />
        <mxCell id="UxW9fmJ-w9nNnRusFdq5-1" value="&lt;div&gt;range:&lt;/div&gt;&lt;div&gt;far|med|near&lt;br&gt;&lt;/div&gt;" style="rounded=0;whiteSpace=wrap;html=1;fillColor=#dae8fc;strokeColor=#6c8ebf;" vertex="1" parent="1">
          <mxGeometry x="1920" y="40" width="120" height="60" as="geometry" />
        </mxCell>
        <mxCell id="UxW9fmJ-w9nNnRusFdq5-2" value="&lt;div&gt;altitude:&lt;/div&gt;&lt;div&gt;high|med|low&lt;br&gt;&lt;/div&gt;" style="rounded=0;whiteSpace=wrap;html=1;fillColor=#dae8fc;strokeColor=#6c8ebf;" vertex="1" parent="1">
          <mxGeometry x="2080" y="40" width="120" height="60" as="geometry" />
        </mxCell>
        <mxCell id="UxW9fmJ-w9nNnRusFdq5-3" value="&lt;div&gt;speed:&lt;/div&gt;&lt;div&gt;fast|med|slow&lt;br&gt;&lt;/div&gt;" style="rounded=0;whiteSpace=wrap;html=1;" vertex="1" parent="1">
          <mxGeometry x="1800" y="150" width="120" height="60" as="geometry" />
        </mxCell>
        <mxCell id="UxW9fmJ-w9nNnRusFdq5-4" value="&lt;div&gt;obj_type:&lt;/div&gt;&lt;div&gt;missile|fighter&lt;/div&gt;&lt;div&gt;bomber|uav&lt;/div&gt;" style="rounded=0;whiteSpace=wrap;html=1;fillColor=#fff2cc;strokeColor=#d6b656;" vertex="1" parent="1">
          <mxGeometry x="1760" y="240" width="120" height="60" as="geometry" />
        </mxCell>
        <mxCell id="UxW9fmJ-w9nNnRusFdq5-5" value="&lt;div&gt;intent:&lt;/div&gt;&lt;div&gt;cruise|attack&lt;/div&gt;&lt;div&gt;evade/neut&lt;br&gt;&lt;/div&gt;" style="rounded=0;whiteSpace=wrap;html=1;" vertex="1" parent="1">
          <mxGeometry x="1890" y="350" width="120" height="60" as="geometry" />
        </mxCell>
        <mxCell id="UxW9fmJ-w9nNnRusFdq5-6" value="" style="endArrow=classic;html=1;rounded=0;exitX=0.5;exitY=1;exitDx=0;exitDy=0;entryX=0;entryY=0;entryDx=0;entryDy=0;" edge="1" parent="1" source="UxW9fmJ-w9nNnRusFdq5-4" target="UxW9fmJ-w9nNnRusFdq5-5">
          <mxGeometry width="50" height="50" relative="1" as="geometry">
            <mxPoint x="1500" y="110" as="sourcePoint" />
            <mxPoint x="1570" y="240" as="targetPoint" />
          </mxGeometry>
        </mxCell>
        <mxCell id="UxW9fmJ-w9nNnRusFdq5-7" value="" style="endArrow=classic;html=1;rounded=0;exitX=0.75;exitY=1;exitDx=0;exitDy=0;entryX=0.25;entryY=0;entryDx=0;entryDy=0;" edge="1" parent="1" source="UxW9fmJ-w9nNnRusFdq5-3" target="UxW9fmJ-w9nNnRusFdq5-5">
          <mxGeometry width="50" height="50" relative="1" as="geometry">
            <mxPoint x="1600" y="200" as="sourcePoint" />
            <mxPoint x="1650" y="150" as="targetPoint" />
          </mxGeometry>
        </mxCell>
        <mxCell id="UxW9fmJ-w9nNnRusFdq5-8" value="" style="endArrow=classic;html=1;rounded=0;exitX=0.5;exitY=1;exitDx=0;exitDy=0;" edge="1" parent="1" source="UxW9fmJ-w9nNnRusFdq5-1" target="UxW9fmJ-w9nNnRusFdq5-5">
          <mxGeometry width="50" height="50" relative="1" as="geometry">
            <mxPoint x="1670" y="-40" as="sourcePoint" />
            <mxPoint x="1720" y="-90" as="targetPoint" />
          </mxGeometry>
        </mxCell>
        <mxCell id="UxW9fmJ-w9nNnRusFdq5-9" value="" style="endArrow=classic;html=1;rounded=0;exitX=0.25;exitY=1;exitDx=0;exitDy=0;entryX=0.75;entryY=0;entryDx=0;entryDy=0;" edge="1" parent="1" source="UxW9fmJ-w9nNnRusFdq5-2" target="UxW9fmJ-w9nNnRusFdq5-5">
          <mxGeometry width="50" height="50" relative="1" as="geometry">
            <mxPoint x="1740" y="-40" as="sourcePoint" />
            <mxPoint x="1790" y="-90" as="targetPoint" />
          </mxGeometry>
        </mxCell>
      </root>
    </mxGraphModel>
  </diagram>
</mxfile>
